<svg width="512" height="512" viewBox="0 0 512 512" fill="none" xmlns="http://www.w3.org/2000/svg">
  <rect width="512" height="512" rx="112" fill="#FAF8F2"/>
  <path d="M438 349.1C438 398.2 398.2 438 349.1 438H275V275H349.1C398.2 275 438 314.8 438 363.9V349.1Z" fill="#68C4FF"/>
  <path d="M364 74C404.9 74 438 107.1 438 148V201C438 241.9 404.9 275 364 275H311C270.1 275 237 241.9 237 201V148C237 107.1 270.1 74 311 74H364Z" fill="#0C79D8"/>
  <path d="M201 237C241.9 237 275 270.1 275 311V364C275 404.9 241.9 438 201 438H148C107.1 438 74 404.9 74 364V311C74 270.1 107.1 237 148 237H201Z" fill="#FF5A1F"/>
  <path d="M275 275H162.9C113.8 275 74 235.2 74 186.1V162.9C74 113.8 113.8 74 162.9 74H186.1C235.2 74 275 113.8 275 162.9V275Z" fill="#0B5CF5"/>
</svg>
